<svg width="32" height="22" viewBox="0 0 32 22" fill="none" xmlns="http://www.w3.org/2000/svg">
<path d="M17.4291 21.5625C6.49594 21.5625 0.259838 13.6796 0 0.5625H5.47658C5.65647 10.1901 9.69394 14.2682 12.8919 15.109V0.5625H18.0487V8.8658C21.2067 8.50845 24.5247 4.72466 25.644 0.5625H30.8008C30.379 2.72112 29.5382 4.76498 28.3311 6.56625C27.1239 8.36752 25.5763 9.88745 23.7851 11.031C25.7845 12.0758 27.5505 13.5547 28.9666 15.3701C30.3826 17.1855 31.4165 19.296 32 21.5625H26.3235C25.7997 19.5939 24.7351 17.8317 23.2631 16.4967C21.7911 15.1618 19.9772 14.3134 18.0487 14.058V21.5625H17.4291V21.5625Z" fill="white"/>
</svg>
