<svg width="36" height="25" viewBox="0 0 36 25" fill="none" xmlns="http://www.w3.org/2000/svg">
<path fill-rule="evenodd" clip-rule="evenodd" d="M5.29089 22.4507C4.72033 22.2871 4.19973 21.9959 3.77303 21.6018C3.34633 21.2077 3.02604 20.7223 2.8392 20.1864C1.77152 17.4169 1.45517 5.85216 3.51144 3.56916C4.1958 2.82648 5.16203 2.36923 6.20039 2.29666C11.7167 1.73527 28.76 1.81012 30.7174 2.4838C31.2679 2.65284 31.7709 2.93762 32.1886 3.31679C32.6064 3.69596 32.928 4.15969 33.1295 4.67323C34.2961 7.53634 34.3356 17.9409 32.9713 20.6917C32.6095 21.4077 32.0036 21.9878 31.2512 22.3384C29.1949 23.3115 8.01939 23.2928 5.29089 22.4507V22.4507ZM14.0498 17.0239L23.9357 12.1585L14.0498 7.25565V17.0239Z" fill="#0B92F2"/>
</svg>
