<svg width="29" height="29" viewBox="0 0 29 29" fill="none" xmlns="http://www.w3.org/2000/svg">
<path d="M16.9107 16.9107C14.9464 18.9375 14.8036 21.4643 14.6339 27C19.7946 27 23.3571 26.9821 25.1964 25.1964C26.9821 23.3571 27 19.625 27 14.6339C21.4643 14.8125 18.9375 14.9464 16.9107 16.9107V16.9107ZM2 14.6339C2 19.625 2.01786 23.3571 3.80357 25.1964C5.64286 26.9821 9.20536 27 14.3661 27C14.1875 21.4643 14.0536 18.9375 12.0893 16.9107C10.0625 14.9464 7.53571 14.8036 2 14.6339V14.6339ZM14.3661 2C9.21429 2 5.64286 2.01786 3.80357 3.80357C2.01786 5.64286 2 9.375 2 14.3661C7.53571 14.1875 10.0625 14.0536 12.0893 12.0893C14.0536 10.0625 14.1964 7.53571 14.3661 2V2ZM16.9107 12.0893C14.9464 10.0625 14.8036 7.53571 14.6339 2C19.7946 2 23.3571 2.01786 25.1964 3.80357C26.9821 5.64286 27 9.375 27 14.3661C21.4643 14.1875 18.9375 14.0536 16.9107 12.0893" fill="#0B92F2"/>
</svg>
