<svg width="1174" height="427" viewBox="0 0 1174 427" fill="none" xmlns="http://www.w3.org/2000/svg">
<g clip-path="url(#clip0_8536_2335)">
<path d="M1114 0H60C26.8629 0 0 26.8629 0 60V367C0 400.137 26.8629 427 60 427H1114C1147.14 427 1174 400.137 1174 367V60C1174 26.8629 1147.14 0 1114 0Z" fill="white"/>
<path fill-rule="evenodd" clip-rule="evenodd" d="M1132.19 213.374C1132.19 303.051 1059.5 375.748 969.819 375.748C939.38 375.748 910.898 367.373 886.55 352.801L807.426 375.748L835.727 304.97C817.883 278.897 807.445 247.354 807.445 213.374C807.445 123.697 880.142 51 969.819 51C1059.5 51 1132.19 123.697 1132.19 213.374ZM1043.47 292.789V164.787H1042.81L1002.41 192.232V162.811L1043.36 134.379H1076.3V292.789H1043.47ZM926.994 251.073L918.541 292.789H942.912L951.255 251.073H977.931L982.432 227.361H955.976L961.904 197.721H988.141L992.642 174.228H966.734L974.748 134.269H950.377L942.253 174.228H913.492L921.396 134.269H897.244L889.121 174.228H863.652L859.151 197.721H884.4L878.472 227.361H853.553L849.052 251.073H873.752L865.518 292.789H889.67L898.123 251.073H926.994ZM932.703 229.447H900.757L907.564 195.745H939.619L932.703 229.447Z" fill="#0B92F2"/>
<path d="M766.474 200.884H735.777V146.096L684.75 54.208H718.192L751.023 116.822H751.735L784.668 54.208H817.602L766.474 146.096V200.884Z" fill="#0B92F2"/>
<path d="M594.49 147.215V200.884H563.793V54.208H623.866C657.613 54.208 676.925 71.9961 676.925 100.965C676.925 119.77 667.167 136.033 650.294 142.64L681.195 200.884H646.432L619.089 147.215H594.49ZM594.49 78.1966V124.954H620.918C636.369 124.954 645.415 116.111 645.415 101.575C645.415 87.3448 635.86 78.1966 620.613 78.1966H594.49Z" fill="#0B92F2"/>
<path d="M504.33 200.884H473.633V79.518H431.246V54.208H546.818V79.518H504.33V200.884Z" fill="#0B92F2"/>
<path d="M414.17 200.884H383.473V54.208H414.17V200.884Z" fill="#0B92F2"/>
<path d="M359.078 200.884H331.735V101.88H330.921L291.076 200.884H271.763L231.918 101.88H231.105V200.884H203.762V54.208H239.338L281.013 159.514H281.826L323.501 54.208H359.078V200.884Z" fill="#0B92F2"/>
<path d="M58 54.208H114.007C158.02 54.208 183.94 80.4328 183.94 126.987C183.94 173.541 158.02 200.884 114.007 200.884H58V54.208ZM88.6972 79.518V175.472H110.348C137.792 175.472 152.633 158.802 152.633 127.089C152.633 96.3913 137.386 79.518 110.348 79.518H88.6972Z" fill="#0B92F2"/>
<path d="M696.371 377.521C639.446 377.521 603.801 349.06 603.801 301.693C603.801 254.427 639.717 225.864 696.371 225.864C743.402 225.864 779.183 248.226 782.3 281.058H742.453C738.658 263.067 720.225 251.276 696.371 251.276C665.469 251.276 645.545 270.69 645.545 301.591C645.545 332.898 665.198 352.211 696.507 352.211C720.767 352.211 738.251 341.538 742.588 324.156H782.436C777.827 356.887 744.35 377.521 696.371 377.521Z" fill="#0B92F2"/>
<path d="M555.817 375.081L540.908 339.505H472.192L457.283 375.081H415.268L483.17 228.405H531.285L599.324 375.081H555.817ZM506.076 256.46L481.002 316.533H532.098L507.025 256.46H506.076Z" fill="#0B92F2"/>
<path d="M363.09 375.081H313.757L248.021 228.405H293.832L338.559 343.469H339.507L384.234 228.405H428.826L363.09 375.081Z" fill="#0B92F2"/>
<path d="M227.961 375.081H187.029V313.28H98.9315V375.081H58V228.405H98.9315V287.97H187.029V228.405H227.961V375.081Z" fill="#0B92F2"/>
</g>
<defs>
<clipPath id="clip0_8536_2335">
<rect width="1174" height="427" fill="white"/>
</clipPath>
</defs>
</svg>
