<svg width="18" height="15" viewBox="0 0 18 15" fill="none" xmlns="http://www.w3.org/2000/svg">
<path d="M1.23723 6.52698C6.06998 4.55143 9.29181 3.24891 10.9027 2.61964C15.5076 0.822746 16.4632 0.510665 17.0874 0.500092C17.2247 0.498026 17.5303 0.529866 17.7297 0.681167C17.8954 0.80877 17.9421 0.981339 17.9654 1.1025C17.9861 1.22354 18.0146 1.49941 17.9913 1.71475C17.7426 4.17446 16.6627 10.1434 16.1136 12.8984C15.8831 14.0641 15.4247 14.4549 14.9818 14.4931C14.0184 14.5762 13.288 13.8961 12.3557 13.3228C10.8975 12.4252 10.074 11.8666 8.65728 10.9909C7.02047 9.97883 8.08233 9.42247 9.01469 8.51345C9.25814 8.2755 13.5004 4.65522 13.5807 4.32685C13.591 4.28578 13.6014 4.13265 13.503 4.05196C13.4072 3.97102 13.2647 3.99873 13.1611 4.02061C13.0135 4.05172 10.6852 5.4974 6.16839 8.35741C5.50797 8.78373 4.9097 8.99154 4.371 8.9806C3.78051 8.96869 2.64095 8.66658 1.79405 8.40846C0.758096 8.09176 -0.0680822 7.92429 0.00443497 7.38641C0.0406935 7.10642 0.452487 6.81986 1.23723 6.52698Z" fill="#0B92F2"/>
</svg>
