<svg width="36" height="25" viewBox="0 0 36 25" fill="none" xmlns="http://www.w3.org/2000/svg">
<path d="M19.4291 23C8.49594 23 2.25984 15.1171 2 2H7.47658C7.65647 11.6276 11.6939 15.7057 14.8919 16.5465V2H20.0487V10.3033C23.2067 9.94595 26.5247 6.16216 27.644 2H32.8008C32.379 4.15862 31.5382 6.20248 30.3311 8.00375C29.1239 9.80502 27.5763 11.325 25.7851 12.4685C27.7845 13.5133 29.5505 14.9922 30.9666 16.8076C32.3826 18.623 33.4165 20.7335 34 23H28.3235C27.7997 21.0314 26.7351 19.2692 25.2631 17.9342C23.7911 16.5993 21.9772 15.7509 20.0487 15.4955V23H19.4291V23Z" fill="#0B92F2"/>
</svg>
