<svg width="19" height="19" viewBox="0 0 19 19" fill="none" xmlns="http://www.w3.org/2000/svg">
<path d="M16.2561 2.77298C14.4959 0.97565 12.0627 0 9.57765 0C4.29701 0 0.0517881 4.26217 0.103576 9.44863C0.103576 11.038 0.539457 12.5793 1.27065 13.9796C1.31841 14.0711 1.33075 14.1771 1.3033 14.2766L0.183413 18.3353C0.101704 18.6314 0.370452 18.9053 0.668074 18.8292L4.86841 17.7554C4.96697 17.7302 5.07125 17.7439 5.16122 17.7914C6.5225 18.5099 8.02421 18.846 9.52586 18.846C14.7548 18.846 19 14.5838 19 9.39727C19 6.88105 18.0164 4.51895 16.2561 2.77298ZM9.57765 17.254C8.17986 17.254 6.782 16.8946 5.59129 16.1757L5.41377 16.0876C5.32788 16.045 5.22955 16.0347 5.13669 16.0585L2.93898 16.6223C2.64298 16.6982 2.3746 16.4276 2.45296 16.1323L3.00802 14.0401C3.03757 13.9287 3.01765 13.81 2.95337 13.7144L2.84743 13.5568C0.569528 9.91081 1.65666 5.08379 5.38421 2.82435C9.11169 0.564863 13.9264 1.64323 16.2044 5.34056C18.4823 9.03783 17.3951 13.8135 13.6676 16.073C12.4769 16.8432 11.0272 17.254 9.57765 17.254ZM14.1335 11.554L13.5667 11.2984C13.5649 11.2977 13.5633 11.2969 13.5615 11.2962C13.5138 11.2754 12.8028 10.966 12.302 10.7223C12.2465 10.6953 12.1857 10.6775 12.1303 10.6504C12.1077 10.6395 12.0852 10.6298 12.0627 10.6298C11.9363 10.6298 11.8443 10.6637 11.7586 10.704C11.7197 10.7223 11.6852 10.7483 11.6564 10.7802C11.5864 10.8574 11.4078 11.0568 10.9583 11.5663C10.9356 11.5919 10.9172 11.6218 10.8965 11.649C10.8402 11.7227 10.7526 11.7594 10.6648 11.7594H10.6131C10.5785 11.7594 10.5209 11.7366 10.471 11.7061C10.4249 11.678 10.3801 11.6465 10.3299 11.6266L10.1472 11.554C9.57765 11.2973 9.05997 10.9892 8.64581 10.5784C8.54223 10.4756 8.38694 10.373 8.28336 10.2702C7.92099 9.91081 7.55861 9.5 7.29974 9.03782L7.27724 8.99321C7.25784 8.95476 7.22953 8.9211 7.21001 8.88272C7.20017 8.86337 7.19239 8.84207 7.1826 8.81681C7.16 8.75853 7.14279 8.69714 7.14604 8.63472C7.14902 8.57747 7.15757 8.52577 7.18212 8.48993C7.19041 8.47781 7.20076 8.46728 7.21005 8.45591C7.25894 8.39606 7.42726 8.1924 7.55861 8.06217C7.65271 7.96878 7.70406 7.83298 7.79044 7.73193C7.80764 7.71181 7.82521 7.69185 7.83876 7.66912C7.92783 7.51968 7.96909 7.33227 7.92099 7.18919C7.8692 6.93242 7.24795 5.54596 7.09266 5.23783C7.00322 5.10482 6.91384 5.04836 6.79112 5.00235C6.75115 4.98737 6.70853 4.98105 6.66584 4.98105H6.57492C6.47141 4.98105 6.31612 4.98105 6.16075 4.98105C6.07464 4.98105 5.98847 5.01661 5.90234 5.02856C5.86912 5.03317 5.8368 5.04568 5.81299 5.0693V5.0693C5.80331 5.0789 5.79209 5.08676 5.78015 5.09334C5.70136 5.13672 5.6226 5.20633 5.54382 5.25695C5.50774 5.28014 5.47169 5.30415 5.44341 5.33639C5.36713 5.42334 5.31656 5.51033 5.22892 5.59726C4.86647 6.05944 4.65939 6.62435 4.65939 7.18919C4.65939 7.6 4.76296 8.01081 4.91826 8.37025L4.97005 8.52435C5.436 9.5 6.05725 10.373 6.88558 11.1432L7.09266 11.3486C7.23248 11.4874 7.37229 11.5844 7.47437 11.7148C7.49694 11.7437 7.52096 11.7715 7.54899 11.7951C8.62612 12.701 9.85455 13.356 11.2343 13.7108C11.3698 13.7556 11.5445 13.7613 11.69 13.7961C11.7316 13.806 11.7738 13.8135 11.8165 13.8135C11.9615 13.8135 12.1351 13.8135 12.2698 13.8135C12.5286 13.8135 12.8392 13.7108 13.0463 13.6081C13.2016 13.5054 13.3052 13.5054 13.4087 13.4027L13.5123 13.3C13.6158 13.1973 13.7194 13.146 13.8229 13.0432C13.9264 12.9406 14.03 12.8378 14.0817 12.7352C14.1801 12.5402 14.2316 12.299 14.2809 12.0554C14.2862 12.0293 14.2888 12.0028 14.2888 11.9763C14.2888 11.9295 14.2888 11.8762 14.2888 11.8234C14.2888 11.7168 14.2459 11.6128 14.1515 11.5632C14.1457 11.5602 14.1397 11.5571 14.1335 11.554Z" fill="#45B61E"/>
</svg>
