<svg width="32" height="22" viewBox="0 0 32 22" fill="none" xmlns="http://www.w3.org/2000/svg">
<path fill-rule="evenodd" clip-rule="evenodd" d="M3.29089 21.0132C2.72033 20.8496 2.19973 20.5584 1.77303 20.1643C1.34633 19.7702 1.02604 19.2848 0.839196 18.7489C-0.228478 15.9794 -0.544827 4.41466 1.51144 2.13166C2.1958 1.38898 3.16203 0.931734 4.20039 0.859164C9.71671 0.297769 26.76 0.372623 28.7174 1.0463C29.2679 1.21534 29.7709 1.50012 30.1886 1.87929C30.6064 2.25846 30.928 2.72219 31.1295 3.23573C32.2961 6.09884 32.3356 16.5034 30.9713 19.2542C30.6095 19.9702 30.0036 20.5503 29.2512 20.9009C27.1949 21.874 6.01939 21.8553 3.29089 21.0132V21.0132ZM12.0498 15.5864L21.9357 10.721L12.0498 5.81815V15.5864Z" fill="white"/>
</svg>
