<svg width="33" height="33" viewBox="0 0 33 33" fill="none" xmlns="http://www.w3.org/2000/svg">
<rect x="9.71875" y="9.83594" width="14.5312" height="14.1818" fill="white"/>
<path fill-rule="evenodd" clip-rule="evenodd" d="M4.18805 26.4091C3.63532 26.2543 3.13099 25.9791 2.71762 25.6065C2.30425 25.2339 1.99398 24.7749 1.81297 24.2683C0.778661 21.6498 0.472199 10.7159 2.4642 8.55743C3.12718 7.85526 4.06321 7.42296 5.06913 7.35435C10.4131 6.82357 26.9237 6.89434 28.82 7.53127C29.3533 7.6911 29.8406 7.96034 30.2452 8.31883C30.6499 8.67732 30.9615 9.11575 31.1567 9.60128C32.2868 12.3082 32.3251 22.1452 31.0035 24.746C30.6529 25.423 30.066 25.9714 29.3371 26.3029C27.3451 27.2229 6.83129 27.2052 4.18805 26.4091V26.4091ZM12.6732 21.2783L22.2502 16.6783L12.6732 12.0428V21.2783Z" fill="#FF0101"/>
</svg>
